<svg width="192" height="40" viewBox="0 0 192 40" fill="none" xmlns="http://www.w3.org/2000/svg">
<rect width="192" height="40" rx="8" fill="#AEB8D6"/>
<path d="M37.1931 25.096C36.8838 25.096 36.6331 25 36.4411 24.808C36.2598 24.616 36.1691 24.3653 36.1691 24.056V14.664C36.1691 14.3547 36.2598 14.1093 36.4411 13.928C36.6331 13.736 36.8838 13.64 37.1931 13.64C37.5131 13.64 37.7638 13.736 37.9451 13.928C38.1371 14.1093 38.2331 14.3547 38.2331 14.664V24.056C38.2331 24.3653 38.1371 24.616 37.9451 24.808C37.7638 25 37.5131 25.096 37.1931 25.096ZM45.0371 16.984C45.9758 16.984 46.6745 17.2507 47.1331 17.784C47.5918 18.3173 47.8211 19.1227 47.8211 20.2V24.136C47.8211 24.4347 47.7305 24.6693 47.5491 24.84C47.3785 25.0107 47.1385 25.096 46.8291 25.096C46.5198 25.096 46.2745 25.0107 46.0931 24.84C45.9118 24.6693 45.8211 24.4347 45.8211 24.136V20.312C45.8211 19.704 45.7038 19.2613 45.4691 18.984C45.2451 18.7067 44.8878 18.568 44.3971 18.568C43.8211 18.568 43.3571 18.7493 43.0051 19.112C42.6638 19.4747 42.4931 19.96 42.4931 20.568V24.136C42.4931 24.4347 42.4025 24.6693 42.2211 24.84C42.0398 25.0107 41.7945 25.096 41.4851 25.096C41.1758 25.096 40.9305 25.0107 40.7491 24.84C40.5785 24.6693 40.4931 24.4347 40.4931 24.136V17.944C40.4931 17.6667 40.5838 17.4427 40.7651 17.272C40.9465 17.1013 41.1918 17.016 41.5011 17.016C41.7785 17.016 42.0025 17.1013 42.1731 17.272C42.3545 17.432 42.4451 17.6453 42.4451 17.912V18.344C42.7118 17.9067 43.0691 17.5707 43.5171 17.336C43.9651 17.1013 44.4718 16.984 45.0371 16.984ZM55.3085 17.592C55.3938 17.4 55.5058 17.256 55.6445 17.16C55.7938 17.064 55.9538 17.016 56.1245 17.016C56.3698 17.016 56.5885 17.1013 56.7805 17.272C56.9832 17.432 57.0845 17.6347 57.0845 17.88C57.0845 18.008 57.0525 18.136 56.9885 18.264L54.0285 24.456C53.9325 24.6587 53.7938 24.8133 53.6125 24.92C53.4418 25.0267 53.2498 25.08 53.0365 25.08C52.8338 25.08 52.6365 25.0267 52.4445 24.92C52.2632 24.8133 52.1245 24.6587 52.0285 24.456L49.0525 18.264C48.9992 18.1573 48.9725 18.0347 48.9725 17.896C48.9725 17.6507 49.0738 17.4427 49.2765 17.272C49.4898 17.1013 49.7298 17.016 49.9965 17.016C50.3805 17.016 50.6632 17.2027 50.8445 17.576L53.0845 22.52L55.3085 17.592ZM59.532 25.096C59.244 25.096 59.004 25.016 58.812 24.856C58.6307 24.6853 58.54 24.4453 58.54 24.136V17.96C58.54 17.6507 58.6307 17.416 58.812 17.256C59.004 17.096 59.244 17.016 59.532 17.016C59.82 17.016 60.06 17.096 60.252 17.256C60.444 17.416 60.54 17.6507 60.54 17.96V24.136C60.54 24.4453 60.444 24.6853 60.252 24.856C60.06 25.016 59.82 25.096 59.532 25.096ZM59.532 15.592C59.1693 15.592 58.8813 15.496 58.668 15.304C58.4547 15.1013 58.348 14.84 58.348 14.52C58.348 14.2 58.4547 13.944 58.668 13.752C58.8813 13.56 59.1693 13.464 59.532 13.464C59.884 13.464 60.1667 13.56 60.38 13.752C60.604 13.944 60.716 14.2 60.716 14.52C60.716 14.84 60.6093 15.1013 60.396 15.304C60.1827 15.496 59.8947 15.592 59.532 15.592ZM67.0103 23.608C67.5436 23.64 67.8103 23.88 67.8103 24.328C67.8103 24.584 67.7036 24.7813 67.4903 24.92C67.2876 25.048 66.9943 25.1013 66.6102 25.08L66.1783 25.048C64.3863 24.92 63.4903 23.96 63.4903 22.168V18.68H62.6903C62.4023 18.68 62.1783 18.616 62.0183 18.488C61.8689 18.36 61.7942 18.1733 61.7942 17.928C61.7942 17.6827 61.8689 17.496 62.0183 17.368C62.1783 17.24 62.4023 17.176 62.6903 17.176H63.4903V15.704C63.4903 15.416 63.5809 15.1867 63.7623 15.016C63.9436 14.8453 64.1889 14.76 64.4983 14.76C64.7969 14.76 65.0369 14.8453 65.2183 15.016C65.3996 15.1867 65.4903 15.416 65.4903 15.704V17.176H66.8503C67.1383 17.176 67.3569 17.24 67.5063 17.368C67.6663 17.496 67.7463 17.6827 67.7463 17.928C67.7463 18.1733 67.6663 18.36 67.5063 18.488C67.3569 18.616 67.1383 18.68 66.8503 18.68H65.4903V22.312C65.4903 23.1013 65.8529 23.5227 66.5783 23.576L67.0103 23.608ZM72.2445 16.984C73.3325 16.984 74.1378 17.256 74.6605 17.8C75.1938 18.3333 75.4605 19.1493 75.4605 20.248V24.152C75.4605 24.44 75.3752 24.6693 75.2045 24.84C75.0338 25 74.7992 25.08 74.5005 25.08C74.2232 25.08 73.9938 24.9947 73.8125 24.824C73.6418 24.6533 73.5565 24.4293 73.5565 24.152V23.8C73.3752 24.216 73.0872 24.5413 72.6925 24.776C72.3085 25.0107 71.8605 25.128 71.3485 25.128C70.8258 25.128 70.3512 25.0213 69.9245 24.808C69.4978 24.5947 69.1618 24.3013 68.9165 23.928C68.6712 23.5547 68.5485 23.1387 68.5485 22.68C68.5485 22.104 68.6925 21.6507 68.9805 21.32C69.2792 20.9893 69.7592 20.7493 70.4205 20.6C71.0818 20.4507 71.9938 20.376 73.1565 20.376H73.5565V20.008C73.5565 19.4853 73.4445 19.1067 73.2205 18.872C72.9965 18.6267 72.6338 18.504 72.1325 18.504C71.8232 18.504 71.5085 18.552 71.1885 18.648C70.8685 18.7333 70.4898 18.8613 70.0525 19.032C69.7752 19.1707 69.5725 19.24 69.4445 19.24C69.2525 19.24 69.0925 19.1707 68.9645 19.032C68.8472 18.8933 68.7885 18.712 68.7885 18.488C68.7885 18.3067 68.8312 18.152 68.9165 18.024C69.0125 17.8853 69.1672 17.7573 69.3805 17.64C69.7538 17.4373 70.1965 17.2773 70.7085 17.16C71.2312 17.0427 71.7432 16.984 72.2445 16.984ZM71.7485 23.688C72.2818 23.688 72.7138 23.512 73.0445 23.16C73.3858 22.7973 73.5565 22.3333 73.5565 21.768V21.432H73.2685C72.5538 21.432 71.9992 21.464 71.6045 21.528C71.2098 21.592 70.9272 21.704 70.7565 21.864C70.5858 22.024 70.5005 22.2427 70.5005 22.52C70.5005 22.8613 70.6178 23.144 70.8525 23.368C71.0978 23.5813 71.3965 23.688 71.7485 23.688ZM86.7891 16.984C87.6425 16.984 88.2931 17.24 88.7411 17.752C89.1998 18.2533 89.4291 19.0693 89.4291 20.2V24.136C89.4291 24.4453 89.3331 24.6853 89.1411 24.856C88.9598 25.016 88.7198 25.096 88.4211 25.096C88.1331 25.096 87.8931 25.016 87.7011 24.856C87.5198 24.6853 87.4291 24.4453 87.4291 24.136V20.2C87.4291 19.6133 87.3225 19.1973 87.1091 18.952C86.9065 18.696 86.5918 18.568 86.1651 18.568C85.6425 18.568 85.2265 18.7493 84.9171 19.112C84.6078 19.464 84.4531 19.9493 84.4531 20.568V24.136C84.4531 24.4453 84.3571 24.6853 84.1651 24.856C83.9838 25.016 83.7491 25.096 83.4611 25.096C83.1731 25.096 82.9331 25.016 82.7411 24.856C82.5491 24.6853 82.4531 24.4453 82.4531 24.136V20.2C82.4531 19.6133 82.3465 19.1973 82.1331 18.952C81.9305 18.696 81.6158 18.568 81.1891 18.568C80.6665 18.568 80.2505 18.7493 79.9411 19.112C79.6425 19.464 79.4931 19.9493 79.4931 20.568V24.136C79.4931 24.4453 79.3971 24.6853 79.2051 24.856C79.0131 25.016 78.7731 25.096 78.4851 25.096C78.1971 25.096 77.9571 25.016 77.7651 24.856C77.5838 24.6853 77.4931 24.4453 77.4931 24.136V17.944C77.4931 17.6453 77.5891 17.416 77.7811 17.256C77.9731 17.096 78.2131 17.016 78.5011 17.016C78.7785 17.016 79.0025 17.096 79.1731 17.256C79.3545 17.4053 79.4451 17.624 79.4451 17.912V18.296C79.6905 17.8693 80.0158 17.544 80.4211 17.32C80.8371 17.096 81.3118 16.984 81.8451 16.984C83.0185 16.984 83.8025 17.4747 84.1971 18.456C84.4318 18.008 84.7785 17.6507 85.2371 17.384C85.6958 17.1173 86.2131 16.984 86.7891 16.984ZM97.6539 22.856C97.8352 22.856 97.9792 22.9253 98.0859 23.064C98.2032 23.2027 98.2619 23.3893 98.2619 23.624C98.2619 23.9547 98.0645 24.232 97.6699 24.456C97.3072 24.6587 96.8965 24.824 96.4379 24.952C95.9792 25.0693 95.5419 25.128 95.1259 25.128C93.8672 25.128 92.8699 24.7653 92.1339 24.04C91.3979 23.3147 91.0299 22.3227 91.0299 21.064C91.0299 20.264 91.1899 19.5547 91.5099 18.936C91.8299 18.3173 92.2779 17.8373 92.8539 17.496C93.4405 17.1547 94.1019 16.984 94.8379 16.984C95.5419 16.984 96.1552 17.1387 96.6779 17.448C97.2005 17.7573 97.6059 18.1947 97.8939 18.76C98.1819 19.3253 98.3259 19.992 98.3259 20.76C98.3259 21.2187 98.1232 21.448 97.7179 21.448H92.9979C93.0619 22.184 93.2699 22.728 93.6219 23.08C93.9739 23.4213 94.4859 23.592 95.1579 23.592C95.4992 23.592 95.7979 23.5493 96.0539 23.464C96.3205 23.3787 96.6192 23.2613 96.9499 23.112C97.2699 22.9413 97.5045 22.856 97.6539 22.856ZM94.8859 18.392C94.3419 18.392 93.9045 18.5627 93.5739 18.904C93.2539 19.2453 93.0619 19.736 92.9979 20.376H96.6139C96.5925 19.7253 96.4325 19.2347 96.1339 18.904C95.8352 18.5627 95.4192 18.392 94.8859 18.392ZM110.482 17.016C110.791 17.016 111.036 17.1013 111.218 17.272C111.399 17.4427 111.49 17.672 111.49 17.96V24.168C111.49 24.4453 111.394 24.6693 111.202 24.84C111.02 25.0107 110.78 25.096 110.482 25.096C110.194 25.096 109.964 25.016 109.794 24.856C109.623 24.696 109.538 24.4773 109.538 24.2V23.8C109.292 24.2267 108.962 24.5573 108.546 24.792C108.13 25.016 107.66 25.128 107.138 25.128C105.218 25.128 104.258 24.0507 104.258 21.896V17.96C104.258 17.672 104.348 17.4427 104.53 17.272C104.711 17.1013 104.951 17.016 105.25 17.016C105.559 17.016 105.804 17.1013 105.986 17.272C106.167 17.4427 106.258 17.672 106.258 17.96V21.912C106.258 22.4667 106.37 22.8773 106.594 23.144C106.818 23.4107 107.17 23.544 107.65 23.544C108.204 23.544 108.647 23.3627 108.978 23C109.319 22.6267 109.49 22.136 109.49 21.528V17.96C109.49 17.672 109.58 17.4427 109.762 17.272C109.943 17.1013 110.183 17.016 110.482 17.016ZM118.115 16.984C119.054 16.984 119.753 17.2507 120.211 17.784C120.67 18.3173 120.899 19.1227 120.899 20.2V24.136C120.899 24.4347 120.809 24.6693 120.627 24.84C120.457 25.0107 120.217 25.096 119.907 25.096C119.598 25.096 119.353 25.0107 119.171 24.84C118.99 24.6693 118.899 24.4347 118.899 24.136V20.312C118.899 19.704 118.782 19.2613 118.547 18.984C118.323 18.7067 117.966 18.568 117.475 18.568C116.899 18.568 116.435 18.7493 116.083 19.112C115.742 19.4747 115.571 19.96 115.571 20.568V24.136C115.571 24.4347 115.481 24.6693 115.299 24.84C115.118 25.0107 114.873 25.096 114.563 25.096C114.254 25.096 114.009 25.0107 113.827 24.84C113.657 24.6693 113.571 24.4347 113.571 24.136V17.944C113.571 17.6667 113.662 17.4427 113.843 17.272C114.025 17.1013 114.27 17.016 114.579 17.016C114.857 17.016 115.081 17.1013 115.251 17.272C115.433 17.432 115.523 17.6453 115.523 17.912V18.344C115.79 17.9067 116.147 17.5707 116.595 17.336C117.043 17.1013 117.55 16.984 118.115 16.984ZM132.49 25.144C131.402 25.144 130.448 24.9093 129.626 24.44C128.816 23.9707 128.192 23.2987 127.754 22.424C127.317 21.5493 127.098 20.5253 127.098 19.352C127.098 18.1787 127.317 17.16 127.754 16.296C128.192 15.4213 128.816 14.7493 129.626 14.28C130.448 13.8107 131.402 13.576 132.49 13.576C133.194 13.576 133.856 13.6827 134.474 13.896C135.093 14.0987 135.642 14.3973 136.122 14.792C136.261 14.8987 136.357 15.0107 136.41 15.128C136.464 15.2453 136.49 15.3893 136.49 15.56C136.49 15.7947 136.426 15.992 136.298 16.152C136.17 16.312 136.016 16.392 135.834 16.392C135.621 16.392 135.402 16.3173 135.178 16.168C134.72 15.8267 134.293 15.592 133.898 15.464C133.504 15.3253 133.066 15.256 132.586 15.256C131.477 15.256 130.634 15.6027 130.058 16.296C129.493 16.9893 129.21 18.008 129.21 19.352C129.21 20.7067 129.493 21.7307 130.058 22.424C130.634 23.1173 131.477 23.464 132.586 23.464C133.045 23.464 133.466 23.3947 133.85 23.256C134.245 23.1173 134.688 22.8827 135.178 22.552C135.285 22.488 135.392 22.4347 135.498 22.392C135.605 22.3493 135.717 22.328 135.834 22.328C136.016 22.328 136.17 22.408 136.298 22.568C136.426 22.728 136.49 22.9253 136.49 23.16C136.49 23.32 136.464 23.464 136.41 23.592C136.357 23.7093 136.261 23.8213 136.122 23.928C135.642 24.3227 135.093 24.6267 134.474 24.84C133.856 25.0427 133.194 25.144 132.49 25.144ZM141.354 16.984C142.442 16.984 143.247 17.256 143.77 17.8C144.303 18.3333 144.57 19.1493 144.57 20.248V24.152C144.57 24.44 144.485 24.6693 144.314 24.84C144.143 25 143.909 25.08 143.61 25.08C143.333 25.08 143.103 24.9947 142.922 24.824C142.751 24.6533 142.666 24.4293 142.666 24.152V23.8C142.485 24.216 142.197 24.5413 141.802 24.776C141.418 25.0107 140.97 25.128 140.458 25.128C139.935 25.128 139.461 25.0213 139.034 24.808C138.607 24.5947 138.271 24.3013 138.026 23.928C137.781 23.5547 137.658 23.1387 137.658 22.68C137.658 22.104 137.802 21.6507 138.09 21.32C138.389 20.9893 138.869 20.7493 139.53 20.6C140.191 20.4507 141.103 20.376 142.266 20.376H142.666V20.008C142.666 19.4853 142.554 19.1067 142.33 18.872C142.106 18.6267 141.743 18.504 141.242 18.504C140.933 18.504 140.618 18.552 140.298 18.648C139.978 18.7333 139.599 18.8613 139.162 19.032C138.885 19.1707 138.682 19.24 138.554 19.24C138.362 19.24 138.202 19.1707 138.074 19.032C137.957 18.8933 137.898 18.712 137.898 18.488C137.898 18.3067 137.941 18.152 138.026 18.024C138.122 17.8853 138.277 17.7573 138.49 17.64C138.863 17.4373 139.306 17.2773 139.818 17.16C140.341 17.0427 140.853 16.984 141.354 16.984ZM140.858 23.688C141.391 23.688 141.823 23.512 142.154 23.16C142.495 22.7973 142.666 22.3333 142.666 21.768V21.432H142.378C141.663 21.432 141.109 21.464 140.714 21.528C140.319 21.592 140.037 21.704 139.866 21.864C139.695 22.024 139.61 22.2427 139.61 22.52C139.61 22.8613 139.727 23.144 139.962 23.368C140.207 23.5813 140.506 23.688 140.858 23.688ZM150.555 15.208C150.064 15.24 149.707 15.3893 149.483 15.656C149.259 15.9227 149.147 16.3067 149.147 16.808V17.176H150.507C151.104 17.176 151.403 17.4267 151.403 17.928C151.403 18.4293 151.104 18.68 150.507 18.68H149.147V24.136C149.147 24.4453 149.051 24.68 148.859 24.84C148.677 25 148.443 25.08 148.155 25.08C147.867 25.08 147.627 25 147.435 24.84C147.243 24.68 147.147 24.4453 147.147 24.136V18.68H146.347C145.749 18.68 145.45 18.4293 145.45 17.928C145.45 17.4267 145.749 17.176 146.347 17.176H147.147V17.064C147.147 16.0613 147.408 15.2773 147.931 14.712C148.464 14.136 149.211 13.8107 150.171 13.736L150.587 13.704C151.013 13.672 151.312 13.72 151.483 13.848C151.664 13.9653 151.755 14.152 151.755 14.408C151.755 14.8667 151.493 15.1227 150.971 15.176L150.555 15.208ZM158.451 22.856C158.632 22.856 158.776 22.9253 158.883 23.064C159 23.2027 159.059 23.3893 159.059 23.624C159.059 23.9547 158.861 24.232 158.467 24.456C158.104 24.6587 157.693 24.824 157.235 24.952C156.776 25.0693 156.339 25.128 155.923 25.128C154.664 25.128 153.667 24.7653 152.931 24.04C152.195 23.3147 151.827 22.3227 151.827 21.064C151.827 20.264 151.987 19.5547 152.307 18.936C152.627 18.3173 153.075 17.8373 153.651 17.496C154.237 17.1547 154.899 16.984 155.635 16.984C156.339 16.984 156.952 17.1387 157.475 17.448C157.997 17.7573 158.403 18.1947 158.691 18.76C158.979 19.3253 159.123 19.992 159.123 20.76C159.123 21.2187 158.92 21.448 158.515 21.448H153.795C153.859 22.184 154.067 22.728 154.419 23.08C154.771 23.4213 155.283 23.592 155.955 23.592C156.296 23.592 156.595 23.5493 156.851 23.464C157.117 23.3787 157.416 23.2613 157.747 23.112C158.067 22.9413 158.301 22.856 158.451 22.856ZM155.683 18.392C155.139 18.392 154.701 18.5627 154.371 18.904C154.051 19.2453 153.859 19.736 153.795 20.376H157.411C157.389 19.7253 157.229 19.2347 156.931 18.904C156.632 18.5627 156.216 18.392 155.683 18.392ZM164.231 25.128C163.452 25.128 162.764 24.9627 162.167 24.632C161.58 24.3013 161.127 23.832 160.807 23.224C160.487 22.616 160.327 21.9067 160.327 21.096C160.327 20.2853 160.492 19.5707 160.823 18.952C161.164 18.3227 161.639 17.8373 162.247 17.496C162.855 17.1547 163.553 16.984 164.343 16.984C164.759 16.984 165.175 17.0427 165.591 17.16C166.017 17.2773 166.391 17.4373 166.711 17.64C167.052 17.864 167.223 18.1467 167.223 18.488C167.223 18.7227 167.164 18.9147 167.047 19.064C166.94 19.2027 166.796 19.272 166.615 19.272C166.497 19.272 166.375 19.2453 166.247 19.192C166.119 19.1387 165.991 19.0747 165.863 19C165.628 18.8613 165.404 18.7547 165.191 18.68C164.977 18.5947 164.732 18.552 164.455 18.552C163.793 18.552 163.281 18.7707 162.919 19.208C162.567 19.6347 162.391 20.2533 162.391 21.064C162.391 21.864 162.567 22.4827 162.919 22.92C163.281 23.3467 163.793 23.56 164.455 23.56C164.721 23.56 164.956 23.5227 165.159 23.448C165.372 23.3627 165.607 23.2507 165.863 23.112C166.023 23.016 166.161 22.9467 166.279 22.904C166.396 22.8507 166.513 22.824 166.631 22.824C166.801 22.824 166.945 22.8987 167.063 23.048C167.18 23.1973 167.239 23.384 167.239 23.608C167.239 23.7893 167.196 23.9493 167.111 24.088C167.036 24.216 166.908 24.3333 166.727 24.44C166.396 24.6533 166.012 24.824 165.575 24.952C165.137 25.0693 164.689 25.128 164.231 25.128ZM169.563 25.096C169.275 25.096 169.035 25.016 168.843 24.856C168.662 24.6853 168.571 24.4453 168.571 24.136V17.96C168.571 17.6507 168.662 17.416 168.843 17.256C169.035 17.096 169.275 17.016 169.563 17.016C169.851 17.016 170.091 17.096 170.283 17.256C170.475 17.416 170.571 17.6507 170.571 17.96V24.136C170.571 24.4453 170.475 24.6853 170.283 24.856C170.091 25.016 169.851 25.096 169.563 25.096ZM169.563 15.592C169.201 15.592 168.913 15.496 168.699 15.304C168.486 15.1013 168.379 14.84 168.379 14.52C168.379 14.2 168.486 13.944 168.699 13.752C168.913 13.56 169.201 13.464 169.563 13.464C169.915 13.464 170.198 13.56 170.411 13.752C170.635 13.944 170.747 14.2 170.747 14.52C170.747 14.84 170.641 15.1013 170.427 15.304C170.214 15.496 169.926 15.592 169.563 15.592ZM177.042 23.608C177.575 23.64 177.842 23.88 177.842 24.328C177.842 24.584 177.735 24.7813 177.522 24.92C177.319 25.048 177.026 25.1013 176.641 25.08L176.21 25.048C174.418 24.92 173.522 23.96 173.522 22.168V18.68H172.722C172.434 18.68 172.21 18.616 172.05 18.488C171.9 18.36 171.825 18.1733 171.825 17.928C171.825 17.6827 171.9 17.496 172.05 17.368C172.21 17.24 172.434 17.176 172.722 17.176H173.522V15.704C173.522 15.416 173.612 15.1867 173.794 15.016C173.975 14.8453 174.22 14.76 174.53 14.76C174.828 14.76 175.068 14.8453 175.25 15.016C175.431 15.1867 175.522 15.416 175.522 15.704V17.176H176.882C177.17 17.176 177.388 17.24 177.538 17.368C177.698 17.496 177.778 17.6827 177.778 17.928C177.778 18.1733 177.698 18.36 177.538 18.488C177.388 18.616 177.17 18.68 176.882 18.68H175.522V22.312C175.522 23.1013 175.884 23.5227 176.61 23.576L177.042 23.608ZM182.452 25.128C181.652 25.128 180.948 24.9627 180.34 24.632C179.742 24.3013 179.278 23.8267 178.948 23.208C178.617 22.5893 178.452 21.8693 178.452 21.048C178.452 20.2267 178.617 19.512 178.948 18.904C179.278 18.2853 179.742 17.8107 180.34 17.48C180.948 17.1493 181.652 16.984 182.452 16.984C183.252 16.984 183.95 17.1493 184.548 17.48C185.156 17.8107 185.62 18.2853 185.94 18.904C186.27 19.512 186.436 20.2267 186.436 21.048C186.436 21.8693 186.27 22.5893 185.94 23.208C185.62 23.8267 185.156 24.3013 184.548 24.632C183.95 24.9627 183.252 25.128 182.452 25.128ZM182.436 23.576C183.086 23.576 183.582 23.3627 183.924 22.936C184.265 22.5093 184.436 21.88 184.436 21.048C184.436 20.2267 184.265 19.6027 183.924 19.176C183.582 18.7387 183.092 18.52 182.452 18.52C181.812 18.52 181.316 18.7387 180.964 19.176C180.622 19.6027 180.452 20.2267 180.452 21.048C180.452 21.88 180.622 22.5093 180.964 22.936C181.305 23.3627 181.796 23.576 182.436 23.576Z" fill="white"/>
<path fill-rule="evenodd" clip-rule="evenodd" d="M25.6394 8H12.4897C9.28979 8 6.67083 10.619 6.67083 13.8189V16.3163C5.09827 17.0055 4 18.5736 4 20.3997C4 22.2257 5.09827 23.7938 6.67083 24.483V26.9685C6.67083 30.1685 9.28979 32.7875 12.4897 32.7875H25.6394C28.8393 32.7875 31.4583 30.1685 31.4583 26.9685V13.8189C31.4583 10.619 28.8393 8 25.6394 8ZM24.6759 24.3007C25.4466 23.1994 25.9002 21.8596 25.9002 20.4145C25.9002 16.6646 22.8603 13.6248 19.1104 13.6248C15.3606 13.6248 12.3192 16.6646 12.3192 20.4145C12.3192 24.1643 15.3591 27.2042 19.109 27.2042C20.5096 27.2042 21.8094 26.7803 22.8899 26.0541L25.7771 27.179L24.6759 24.3007ZM10.2739 16.838C11.6879 13.3461 15.1101 10.8813 19.1105 10.8813C24.375 10.8813 28.6436 15.1499 28.6466 20.4145C28.6466 22.5206 27.9618 24.4667 26.8043 26.0451L26.1981 24.4637C26.8814 23.2706 27.2741 21.8892 27.2741 20.4145C27.2741 15.9058 23.6192 12.2523 19.1119 12.2523C14.6032 12.2523 10.9497 15.9058 10.9497 20.4145C10.9497 24.9232 14.6047 28.5767 19.1119 28.5767C20.5289 28.5767 21.8613 28.215 23.0218 27.5807L24.6122 28.2002C23.0574 29.2999 21.1617 29.9491 19.1119 29.9491C15.0879 29.9491 11.6493 27.4562 10.2502 23.9316H8.7947C6.83975 23.9316 5.24792 22.3398 5.24792 20.3848C5.24792 18.4299 6.83827 16.838 8.7947 16.838H10.2739ZM8.72356 22.5206L8.79322 22.5191V22.5206H9.81146C9.6588 21.8433 9.5758 21.1392 9.5758 20.4159C9.5758 19.6704 9.66472 18.9471 9.82628 18.2505H8.70281C7.566 18.298 6.65596 19.2376 6.65596 20.3848C6.65596 21.5394 7.57786 22.4835 8.72356 22.5206Z" fill="white"/>
</svg>